<?xml version="1.0" encoding="UTF-8"?>
<svg width="150px" height="150px" viewBox="0 0 150 150" version="1.1" xmlns="http://www.w3.org/2000/svg" xmlns:xlink="http://www.w3.org/1999/xlink">
    <title>Artboard</title>
    <g id="Artboard" stroke="none" stroke-width="1" fill="none" fill-rule="evenodd">
        <circle id="Oval" fill="#3FE63F" cx="75" cy="75" r="75"></circle>
        <path id="Path-3"
              fill="#FFFFFF"
              d="M 73.84,115.43
                 C 64.39,93.69 58.15,79.19 55.14,71.94
                   46.54,51.22 45.05,46.92 45.00,44.11
                   44.99,43.50 45.14,42.12 45.87,41.22
                   46.48,40.47 47.30,40.26 47.88,40.16
                   48.46,40.06 49.78,39.94 50.81,40.04
                   62.58,41.16 91.15,46.02 104.33,48.49
                   109.91,49.53 111.78,51.59 111.97,53.58
                   112.36,57.91 109.11,61.20 106.37,65.40
                   102.07,71.96 99.40,75.67 95.21,82.04
                   90.36,89.41 87.70,84.63 83.35,80.44
                   82.21,79.34 64.89,60.26 63.31,59.89
                   63.12,59.84 62.38,59.80 62.00,60.23
                   61.61,60.67 61.74,61.31 61.85,61.78
                   62.00,62.44 68.92,72.92 82.60,93.24
                   84.64,96.21 85.64,98.91 85.58,101.33
                   85.53,103.99 84.08,109.11 82.85,112.92
                   81.33,117.59 80.53,121.30 77.96,120.98
                   76.62,120.81 75.24,118.96 73.84,115.43 Z" />
    </g>
</svg>
